#!OML:ASF E:\motion texture\Top Level 1\Subject 1\Session 1\male.ASF
:FULLY-SPECIFIED
:DEGREES
279
root 16.6954 17.208 5.82052 84.1104 -81.7614 -78.515
lowerback -2.42371 4.96943 4.57305
upperback 0.12009 6.53615 -2.43754
thorax 2.27592 3.33495 -4.74135
lowerneck -16.1491 -7.07123 -11.4223
upperneck -0.260081 -8.37585 16.1126
head 3.77132 -3.59301 6.16765
rclavicle 1.94809e-014 -3.18055e-015
rhumerus -33.4859 38.7391 -107.88
rradius 51.1035
rwrist 10.9276
rhand -17.1853 -25.0226
rfingers 7.12502
rthumb 9.05651 -54.8082
lclavicle 1.94809e-014 -3.18055e-015
lhumerus -32.8336 -3.32747 95.38
lradius 54.5136
lwrist -16.6655
lhand -11.2719 17.6979
lfingers 7.12502
lthumb 14.7585 47.1525
rfemur -3.19623 -0.990346 31.6357
rtibia 41.1773
rfoot -14.5643 -13.1942
rtoes -3.96812
lfemur -34.615 0.524757 -10.554
ltibia 33.8942
lfoot -6.34996 -1.76092
ltoes -2.00729
280
root 16.5301 17.22 5.83784 84.6556 -82.011 -79.1607
lowerback -2.41572 4.85078 4.33992
upperback 0.0727875 6.38457 -2.48129
thorax 2.18372 3.25313 -4.67147
lowerneck -16.2188 -7.09707 -11.4206
upperneck -0.18627 -8.43788 16.3706
head 3.8299 -3.61027 6.24182
rclavicle 3.04141e-014 1.11319e-014
rhumerus -34.2643 39.6805 -107.696
rradius 52.5434
rwrist 11.1467
rhand -16.6838 -25.0819
rfingers 7.12502
rthumb 9.54041 -54.8459
lclavicle 3.04141e-014 1.11319e-014
lhumerus -33.0279 -3.10478 95.1952
lradius 54.3364
lwrist -16.7537
lhand -11.1419 17.7673
lfingers 7.12502
lthumb 14.8838 47.2126
rfemur -3.80298 -1.32674 31.1306
rtibia 42.6623
rfoot -13.7528 -13.2052
rtoes -3.56687
lfemur -33.9433 0.54145 -10.9135
ltibia 33.9715
lfoot -6.52912 -1.84844
ltoes -1.45799
281
root 16.3655 17.2343 5.85548 85.2805 -82.2624 -79.8907
lowerback -2.40546 4.71868 4.10294
upperback 0.0236105 6.21473 -2.5124
thorax 2.08542 3.16204 -4.58733
lowerneck -16.2904 -7.1114 -11.4029
upperneck -0.0951383 -8.48849 16.6119
head 3.89093 -3.62177 6.30923
rclavicle 5.02925e-014 -1.59028e-014
rhumerus -35.0482 40.5983 -107.441
rradius 54.0675
rwrist 11.364
rhand -16.1574 -25.141
rfingers 7.12502
rthumb 10.0483 -54.8811
lclavicle 5.02925e-014 -1.59028e-014
lhumerus -33.2204 -2.88032 95.0073
lradius 54.1127
lwrist -16.8663
lhand -11.0212 17.8411
lfingers 7.12502
lthumb 15.0001 47.2778
rfemur -4.45887 -1.66191 30.6177
rtibia 44.1432
rfoot -12.9228 -13.2291
rtoes -3.0943
lfemur -33.2211 0.556737 -11.2704
ltibia 33.9937
lfoot -6.72095 -1.91649
ltoes -0.939112
282
root 16.2018 17.2509 5.87338 85.9763 -82.513 -80.6956
lowerback -2.39334 4.57336 3.86415
upperback -0.0266977 6.02689 -2.52983
thorax 1.9825 3.06195 -4.48875
lowerneck -16.3636 -7.1147 -11.37
upperneck 0.0116212 -8.52811 16.8356
head 3.95377 -3.62778 6.36972
rclavicle -1.86858e-014 -2.22639e-014
rhumerus -35.8312 41.5034 -107.109
rradius 55.6726
rwrist 11.5734
rhand -15.61 -25.2008
rfingers 7.12502
rthumb 10.5764 -54.9147
lclavicle -1.86858e-014 -2.22639e-014
lhumerus -33.4104 -2.66069 94.82
lradius 53.8433
lwrist -17.0022
lhand -10.9092 17.9167
lfingers 7.12502
lthumb 15.1079 47.3453
rfemur -5.16265 -1.99627 30.101
rtibia 45.6107
rfoot -12.085 -13.2658
rtoes -2.56441
lfemur -32.4507 0.567873 -11.6225
ltibia 33.956
lfoot -6.92328 -1.96499
ltoes -0.448272
283
root 16.0391 17.2694 5.8915 86.7557 -82.7617 -81.5886
lowerback -2.38016 4.41563 3.62387
upperback -0.0771744 5.82211 -2.5326
thorax 1.87679 2.95347 -4.37458
lowerneck -16.4374 -7.10711 -11.3223
upperneck 0.133714 -8.55675 17.0409
head 4.01811 -3.62833 6.42316
rclavicle -5.40694e-014 2.8625e-014
rhumerus -36.6074 42.4029 -106.696
rradius 57.3551
rwrist 11.7691
rhand -15.0421 -25.2551
rfingers 7.12502
rthumb 11.1242 -54.9403
lclavicle -5.40694e-014 2.8625e-014
lhumerus -33.5961 -2.44901 94.6367
lradius 53.5276
lwrist -17.1606
lhand -10.8059 17.9917
lfingers 7.12502
lthumb 15.2075 47.4128
rfemur -5.91137 -2.32719 29.5835
rtibia 47.056
rfoot -11.2518 -13.3162
rtoes -1.99612
lfemur -31.6316 0.574251 -11.9688
ltibia 33.8536
lfoot -7.13505 -1.99299
ltoes 0.0135993
284
root 15.8774 17.2899 5.90977 87.618 -83.0067 -82.568
lowerback -2.36472 4.24592 3.38391
upperback -0.128243 5.60102 -2.521
thorax 1.76783 2.837 -4.24608
lowerneck -16.5115 -7.08884 -11.2591
upperneck 0.271183 -8.57491 17.2274
head 4.08382 -3.62368 6.46919
rclavicle -3.04141e-014 2.70347e-014
rhumerus -37.3688 43.3026 -106.196
rradius 59.1115
rwrist 11.9397
rhand -14.4486 -25.3018
rfingers 7.12502
rthumb 11.6965 -54.9552
lclavicle -3.04141e-014 2.70347e-014
lhumerus -33.7786 -2.25217 94.4594
lradius 53.1677
lwrist -17.3389
lhand -10.7059 18.07
lfingers 7.12502
lthumb 15.3038 47.4837
rfemur -6.70258 -2.65396 29.0686
rtibia 48.4697
rfoot -10.4319 -13.3781
rtoes -1.39459
lfemur -30.766 0.574994 -12.3088
ltibia 33.6834
lfoot -7.35425 -2.00013
ltoes 0.439555
285
root 15.7169 17.312 5.92813 88.5729 -83.2464 -83.6431
lowerback -2.3476 4.0648 3.14556
upperback -0.179366 5.36438 -2.49459
thorax 1.65705 2.71298 -4.10331
lowerneck -16.5871 -7.06022 -11.1823
upperneck 0.424526 -8.58273 17.396
head 4.15139 -3.61376 6.50847
rclavicle 5.4467e-014 -2.22639e-014
rhumerus -38.1071 44.2093 -105.603
rradius 60.9356
rwrist 12.0859
rhand -13.8521 -25.3428
rfingers 7.12502
rthumb 12.2717 -54.9628
lclavicle 5.4467e-014 -2.22639e-014
lhumerus -33.9571 -2.07483 94.2907
lradius 52.7656
lwrist -17.5348
lhand -10.6163 18.148
lfingers 7.12502
lthumb 15.3901 47.5552
rfemur -7.53377 -2.97449 28.5597
rtibia 49.842
rfoot -9.63596 -13.4512
rtoes -0.770113
lfemur -29.8564 0.570244 -12.641
ltibia 33.4443
lfoot -7.58037 -1.98724
ltoes 0.837392
286
root 15.5575 17.3357 5.94653 89.6194 -83.4795 -84.8125
lowerback -2.32789 3.87271 2.90933
upperback -0.230468 5.11281 -2.45268
thorax 1.54441 2.5818 -3.94577
lowerneck -16.6623 -7.02137 -11.093
upperneck 0.591872 -8.58002 17.5466
head 4.21992 -3.59862 6.54115
rclavicle -2.37548e-014 3.18055e-015
rhumerus -38.8119 45.1253 -104.908
rradius 62.8236
rwrist 12.2058
rhand -13.2233 -25.3597
rfingers 7.12502
rthumb 12.8779 -54.9424
lclavicle -2.37548e-014 3.18055e-015
lhumerus -34.1321 -1.92118 94.134
lradius 52.3235
lwrist -17.7471
lhand -10.5327 18.2188
lfingers 7.12502
lthumb 15.4706 47.6198
rfemur -8.40138 -3.28843 28.0595
rtibia 51.164
rfoot -8.87238 -13.5337
rtoes -0.13035
lfemur -28.9055 0.559106 -12.9652
ltibia 33.1368
lfoot -7.81395 -1.95428
ltoes 1.21189
287
root 15.3993 17.3607 5.9649 90.7671 -83.7054 -86.0851
lowerback -2.30614 3.67099 2.67636
upperback -0.280831 4.84814 -2.39639
thorax 1.43173 2.44444 -3.775
lowerneck -16.7383 -6.97332 -10.9907
upperneck 0.772698 -8.56816 17.6793
head 4.28962 -3.57886 6.56707
rclavicle -1.5704e-014 3.18055e-015
rhumerus -39.4709 46.05 -104.101
rradius 64.7705
rwrist 12.2978
rhand -12.5858 -25.3601
rfingers 7.12502
rthumb 13.4925 -54.903
lclavicle -1.5704e-014 3.18055e-015
lhumerus -34.3014 -1.79823 93.9914
lradius 51.8434
lwrist -17.973
lhand -10.4579 18.2888
lfingers 7.12502
lthumb 15.5426 47.6842
rfemur -9.30248 -3.59308 27.5701
rtibia 52.4266
rfoot -8.14724 -13.6259
rtoes 0.512486
lfemur -27.9164 0.541832 -13.282
ltibia 32.7615
lfoot -8.05567 -1.90013
ltoes 1.55014
